<?xml version="1.0" encoding="UTF-8"?>
<svg width="700pt" height="700pt" version="1.1" viewBox="0 0 700 700" xmlns="http://www.w3.org/2000/svg" xmlns:xlink="http://www.w3.org/1999/xlink">
 <defs>
  <symbol id="m" overflow="visible">
   <path d="m29.312-1.75c-1.5117 0.78125-3.0898 1.3711-4.7344 1.7656-1.6367 0.40625-3.3398 0.60938-5.1094 0.60938-5.3125 0-9.5273-1.4844-12.641-4.4531-3.1055-2.9688-4.6562-7-4.6562-12.094s1.5508-9.125 4.6562-12.094c3.1133-2.9688 7.3281-4.4531 12.641-4.4531 1.7695 0 3.4727 0.19922 5.1094 0.59375 1.6445 0.39844 3.2227 0.99219 4.7344 1.7812v6.5938c-1.5312-1.0391-3.0391-1.8008-4.5156-2.2812-1.4805-0.48828-3.0391-0.73438-4.6719-0.73438-2.9375 0-5.2461 0.94531-6.9219 2.8281-1.6797 1.875-2.5156 4.4648-2.5156 7.7656 0 3.293 0.83594 5.8828 2.5156 7.7656 1.6758 1.875 3.9844 2.8125 6.9219 2.8125 1.6328 0 3.1914-0.23828 4.6719-0.71875 1.4766-0.48828 2.9844-1.2539 4.5156-2.2969z"/>
  </symbol>
  <symbol id="c" overflow="visible">
   <path d="m21.453-17.406c-0.67969-0.3125-1.3516-0.53906-2.0156-0.6875-0.65625-0.15625-1.3203-0.23438-1.9844-0.23438-1.9688 0-3.4844 0.63281-4.5469 1.8906-1.0547 1.2617-1.5781 3.0703-1.5781 5.4219v11.016h-7.6562v-23.922h7.6562v3.9219c0.97656-1.5625 2.1016-2.7031 3.375-3.4219 1.2812-0.71875 2.8125-1.0781 4.5938-1.0781 0.25 0 0.52344 0.011719 0.82812 0.03125 0.30078 0.023438 0.73438 0.070312 1.2969 0.14062z"/>
  </symbol>
  <symbol id="b" overflow="visible">
   <path d="m27.562-12.031v2.1875h-17.891c0.1875 1.793 0.83203 3.1367 1.9375 4.0312 1.1133 0.89844 2.6719 1.3438 4.6719 1.3438 1.6016 0 3.25-0.23438 4.9375-0.70312 1.6875-0.47656 3.4219-1.2031 5.2031-2.1719v5.8906c-1.8047 0.6875-3.6094 1.2031-5.4219 1.5469-1.8125 0.35156-3.6211 0.53125-5.4219 0.53125-4.3359 0-7.7031-1.0977-10.109-3.2969-2.3984-2.207-3.5938-5.2969-3.5938-9.2656 0-3.9062 1.1758-6.9727 3.5312-9.2031 2.3633-2.2383 5.6094-3.3594 9.7344-3.3594 3.7578 0 6.7695 1.1367 9.0312 3.4062 2.2578 2.2617 3.3906 5.2812 3.3906 9.0625zm-7.8594-2.5312c0-1.457-0.42969-2.6289-1.2812-3.5156-0.84375-0.89453-1.9492-1.3438-3.3125-1.3438-1.4922 0-2.6992 0.41797-3.625 1.25-0.91797 0.83594-1.4922 2.0391-1.7188 3.6094z"/>
  </symbol>
  <symbol id="a" overflow="visible">
   <path d="m14.391-10.766c-1.5938 0-2.793 0.27344-3.5938 0.8125-0.80469 0.54297-1.2031 1.3398-1.2031 2.3906 0 0.96875 0.32031 1.7305 0.96875 2.2812 0.64453 0.54297 1.5469 0.8125 2.7031 0.8125 1.4375 0 2.6445-0.51562 3.625-1.5469 0.98828-1.0312 1.4844-2.3203 1.4844-3.875v-0.875zm11.688-2.8906v13.656h-7.7031v-3.5469c-1.0312 1.4492-2.1875 2.5078-3.4688 3.1719s-2.8398 1-4.6719 1c-2.4805 0-4.4961-0.72266-6.0469-2.1719-1.543-1.4453-2.3125-3.3203-2.3125-5.625 0-2.8125 0.96094-4.8672 2.8906-6.1719 1.9375-1.3125 4.9688-1.9688 9.0938-1.9688h4.5156v-0.60938c0-1.207-0.48047-2.0938-1.4375-2.6562-0.94922-0.5625-2.4375-0.84375-4.4688-0.84375-1.6367 0-3.1562 0.16797-4.5625 0.5-1.4062 0.32422-2.7188 0.8125-3.9375 1.4688v-5.8281c1.6445-0.40625 3.2891-0.70703 4.9375-0.90625 1.6562-0.20703 3.3047-0.3125 4.9531-0.3125 4.3203 0 7.4375 0.85547 9.3438 2.5625 1.9141 1.6992 2.875 4.4609 2.875 8.2812z"/>
  </symbol>
  <symbol id="d" overflow="visible">
   <path d="m12.031-30.719v6.7969h7.875v5.4688h-7.875v10.141c0 1.1172 0.21875 1.8711 0.65625 2.2656 0.4375 0.38672 1.3125 0.57812 2.625 0.57812h3.9375v5.4688h-6.5625c-3.0234 0-5.1641-0.62891-6.4219-1.8906-1.2617-1.2578-1.8906-3.3984-1.8906-6.4219v-10.141h-3.7969v-5.4688h3.7969v-6.7969z"/>
  </symbol>
  <symbol id="h" overflow="visible">
   <path d="m19.953-20.422v-12.812h7.6875v33.234h-7.6875v-3.4531c-1.0547 1.4062-2.2148 2.4375-3.4844 3.0938-1.2734 0.65625-2.7422 0.98438-4.4062 0.98438-2.9492 0-5.3711-1.1719-7.2656-3.5156-1.8867-2.3438-2.8281-5.3594-2.8281-9.0469s0.94141-6.7031 2.8281-9.0469c1.8945-2.3438 4.3164-3.5156 7.2656-3.5156 1.6562 0 3.1172 0.33594 4.3906 1 1.2812 0.65625 2.4453 1.6836 3.5 3.0781zm-5.0469 15.484c1.6445 0 2.8945-0.59766 3.75-1.7969 0.86328-1.1953 1.2969-2.9297 1.2969-5.2031 0-2.2812-0.43359-4.0195-1.2969-5.2188-0.85547-1.1953-2.1055-1.7969-3.75-1.7969-1.625 0-2.8711 0.60156-3.7344 1.7969-0.85547 1.1992-1.2812 2.9375-1.2812 5.2188 0 2.2734 0.42578 4.0078 1.2812 5.2031 0.86328 1.1992 2.1094 1.7969 3.7344 1.7969z"/>
  </symbol>
  <symbol id="g" overflow="visible">
   <path d="m16.406-4.9375c1.6328 0 2.8828-0.59766 3.75-1.7969 0.86328-1.1953 1.2969-2.9297 1.2969-5.2031 0-2.2812-0.43359-4.0195-1.2969-5.2188-0.86719-1.1953-2.1172-1.7969-3.75-1.7969-1.6367 0-2.8906 0.60547-3.7656 1.8125-0.875 1.1992-1.3125 2.9336-1.3125 5.2031 0 2.2617 0.4375 3.9961 1.3125 5.2031 0.875 1.1992 2.1289 1.7969 3.7656 1.7969zm-5.0781-15.484c1.0508-1.3945 2.2188-2.4219 3.5-3.0781 1.2812-0.66406 2.7539-1 4.4219-1 2.9453 0 5.3672 1.1719 7.2656 3.5156 1.8945 2.3438 2.8438 5.3594 2.8438 9.0469s-0.94922 6.7031-2.8438 9.0469c-1.8984 2.3438-4.3203 3.5156-7.2656 3.5156-1.668 0-3.1406-0.33594-4.4219-1s-2.4492-1.6914-3.5-3.0781v3.4531h-7.6562v-33.234h7.6562z"/>
  </symbol>
  <symbol id="f" overflow="visible">
   <path d="m0.53125-23.922h7.6562l6.4219 16.234 5.4688-16.234h7.6562l-10.062 26.188c-1.0117 2.6641-2.1953 4.5234-3.5469 5.5781-1.3438 1.0625-3.1211 1.5938-5.3281 1.5938h-4.4219v-5.0156h2.3906c1.3008 0 2.2422-0.21094 2.8281-0.625 0.59375-0.40625 1.0547-1.1484 1.3906-2.2188l0.20312-0.65625z"/>
  </symbol>
  <symbol id="e" overflow="visible">
   <path d="m4.0156-31.891h22.203v6.2188h-13.984v5.9375h13.141v6.2188h-13.141v13.516h-8.2188z"/>
  </symbol>
  <symbol id="l" overflow="visible">
   <path d="m3.6719-23.922h7.6562v23.922h-7.6562zm0-9.3125h7.6562v6.2344h-7.6562z"/>
  </symbol>
  <symbol id="k" overflow="visible">
   <path d="m26.219-30.891v6.75c-1.7617-0.78125-3.4766-1.3672-5.1406-1.7656-1.668-0.40625-3.2422-0.60938-4.7188-0.60938-1.9609 0-3.4141 0.27344-4.3594 0.8125-0.9375 0.54297-1.4062 1.3867-1.4062 2.5312 0 0.85547 0.31641 1.5234 0.95312 2 0.63281 0.46875 1.7852 0.875 3.4531 1.2188l3.5 0.70312c3.5391 0.71875 6.0625 1.8047 7.5625 3.25 1.5 1.4492 2.25 3.5117 2.25 6.1875 0 3.5234-1.0469 6.1406-3.1406 7.8594-2.0859 1.7188-5.2734 2.5781-9.5625 2.5781-2.0234 0-4.0547-0.19531-6.0938-0.57812-2.0312-0.38281-4.0625-0.95703-6.0938-1.7188v-6.9375c2.0312 1.0859 3.9922 1.9023 5.8906 2.4531 1.9062 0.54297 3.7422 0.8125 5.5156 0.8125 1.7891 0 3.1602-0.29688 4.1094-0.89062 0.95703-0.60156 1.4375-1.457 1.4375-2.5625 0-1-0.32422-1.7695-0.96875-2.3125-0.64844-0.53906-1.9375-1.0234-3.875-1.4531l-3.1875-0.70312c-3.1875-0.6875-5.5234-1.7734-7-3.2656-1.4688-1.5-2.2031-3.5156-2.2031-6.0469 0-3.1758 1.0234-5.6172 3.0781-7.3281 2.0508-1.707 5-2.5625 8.8438-2.5625 1.75 0 3.5508 0.13281 5.4062 0.39062 1.8516 0.26172 3.7695 0.65625 5.75 1.1875z"/>
  </symbol>
  <symbol id="j" overflow="visible">
   <path d="m11.328-3.4531v12.547h-7.6562v-33.016h7.6562v3.5c1.0508-1.3945 2.2188-2.4219 3.5-3.0781 1.2812-0.66406 2.7539-1 4.4219-1 2.9453 0 5.3672 1.1719 7.2656 3.5156 1.8945 2.3438 2.8438 5.3594 2.8438 9.0469s-0.94922 6.7031-2.8438 9.0469c-1.8984 2.3438-4.3203 3.5156-7.2656 3.5156-1.668 0-3.1406-0.33594-4.4219-1s-2.4492-1.6914-3.5-3.0781zm5.0781-15.5c-1.6367 0-2.8906 0.60547-3.7656 1.8125-0.875 1.1992-1.3125 2.9336-1.3125 5.2031 0 2.2617 0.4375 3.9961 1.3125 5.2031 0.875 1.1992 2.1289 1.7969 3.7656 1.7969 1.6328 0 2.8828-0.59766 3.75-1.7969 0.86328-1.1953 1.2969-2.9297 1.2969-5.2031 0-2.2812-0.43359-4.0195-1.2969-5.2188-0.86719-1.1953-2.1172-1.7969-3.75-1.7969z"/>
  </symbol>
  <symbol id="i" overflow="visible">
   <path d="m3.4219-9.3125v-14.609h7.6875v2.3906c0 1.293-0.011719 2.918-0.03125 4.875-0.011719 1.9609-0.015625 3.2656-0.015625 3.9219 0 1.9297 0.046875 3.3125 0.14062 4.1562 0.10156 0.84375 0.28125 1.4609 0.53125 1.8438 0.3125 0.5 0.71875 0.88672 1.2188 1.1562 0.50781 0.27344 1.0938 0.40625 1.75 0.40625 1.5938 0 2.8438-0.60938 3.75-1.8281 0.91406-1.2266 1.375-2.9297 1.375-5.1094v-11.812h7.6406v23.922h-7.6406v-3.4531c-1.1562 1.3867-2.3828 2.4141-3.6719 3.0781-1.2812 0.66406-2.6992 1-4.25 1-2.7734 0-4.8828-0.84766-6.3281-2.5469-1.4375-1.6953-2.1562-4.1602-2.1562-7.3906z"/>
  </symbol>
 </defs>
 <g>
  <path d="m349.96 29.551 0.015625 0.011719c12.082 9.1641 23.441 18.242 33.215 28.121l-0.027344 0.011718c-8.1055 3.4336-19.145 5.9102-33.242 5.9102-14.059 0-25.078-2.4492-33.176-5.875l-0.023438-0.007813c9.7695-9.9492 21.137-18.98 33.207-28.195zm-0.027343 83.242h0.003906c10.805 0 19.562 8.7617 19.562 19.57 0 10.812-8.7656 19.578-19.578 19.578s-19.578-8.7656-19.578-19.578 8.7656-19.57 19.578-19.57zm-0.023438-20.223h-0.003906c-21.973 0-39.785 17.816-39.785 39.793 0 21.98 17.82 39.801 39.801 39.801s39.801-17.82 39.801-39.801-17.824-39.793-39.805-39.793zm0 88.41h-0.003906c-5.5781 0-10.094 4.5273-10.094 10.105v73.059c0 5.582 4.5234 10.109 10.109 10.109 5.582 0 10.109-4.5273 10.109-10.109v-73.059c0-5.5859-4.5273-10.105-10.113-10.105zm-78.184 27.828 0.007813 0.039062c2.2656 12.004 4.8945 24.258 7.6367 36.527l-0.023438 0.019531c-6.5586 5.6914-13.918 13.262-17.391 25.93l-0.003906 0.003906c-1.0859 3.9648-1.7695 8.4141-2.1758 13.129-3.7148-7.0859-6.5156-13.801-7.9453-20.18v-0.011719c-3.1328-14.184 0.51562-27.414 6.4766-38.062v-0.007813c3.7461-6.6914 8.2773-12.148 13.41-17.418zm156.38 0 0.019532 0.019531c5.1445 5.207 9.6641 10.684 13.414 17.395l0.003906 0.003906c5.957 10.652 9.6172 23.918 6.4805 38.016l-0.003906 0.011718c-1.4258 6.3906-4.2383 13.129-7.9727 20.242-0.40234-4.7188-1.082-9.1641-2.168-13.129v-0.003907c-3.4727-12.684-10.832-20.273-17.395-25.973l0.003906-0.019531c2.7422-12.332 5.3164-24.543 7.5859-36.594zm-31.34-135.19 0.015625 0.019531c7.7227 10.664 13.465 22.688 16.414 36.93l0.003906 0.007813c8.0781 39.016-4.3438 95.586-18.363 155.96l-13.18 3.8047c-2.1406 0.62109-4.0156 1.9336-5.3359 3.7266l-8.2031 11.172-36.445-0.007813-8.2031-11.176c-1.3164-1.7969-3.1914-3.1055-5.332-3.7266l-13.176-3.8047c-13.988-60.348-26.379-116.89-18.316-155.9l0.003906-0.007813c2.9492-14.309 8.7148-26.297 16.426-37.016l0.027344 0.015625c13.508 6.8008 30.816 10.219 46.82 10.219 16.016 0 33.336-3.4297 46.816-10.25zm-46.828-66.906h-0.011719c-2.3828 0-4.7422 0.84766-6.6055 2.4688l-0.019531 0.019531c-31.5 23.852-66.691 50.273-76.438 97.223v0.007813c-4.6602 22.453-3.3672 49.383 0.82422 78.164-0.17578 0.13281-0.24609 0.19922-0.24609 0.19922l-0.003906 0.003906c-8.9336 8.3633-19.105 17.82-26.773 31.512v0.003906c-7.6367 13.629-13.094 32.012-8.5898 52.273v0.003906c4.3047 19.371 17.789 39.613 29.625 57.605l0.003907 0.003907c1.8945 2.8828 5.1016 4.5547 8.4492 4.5547 0.97656 0 1.9609-0.14062 2.9297-0.43359 4.2578-1.2891 7.1484-5.1992 7.1836-9.5977l-0.011719-0.57422c-0.87109-18.129-1.4961-33.617 1.2031-43.469 0.80078-2.9219 1.9102-5.3477 3.3242-7.5312l0.003906 0.019531c0.59375 2.5625 1.2188 5.1172 1.8125 7.6758 0.82812 3.5664 3.5156 6.4023 7.0312 7.4219l15.57 4.5234 9.2109 12.551c1.9023 2.5938 4.9336 4.1289 8.1523 4.1289l46.66 0.015625c3.2148-0.007813 6.2422-1.5391 8.1484-4.1328l9.2148-12.547 15.574-4.5156c3.5117-1.0156 6.2031-3.8555 7.0312-7.418 0.59766-2.5742 1.1992-5.1523 1.8008-7.7383l0.015625 0.019532c1.4258 2.1836 2.5586 4.6016 3.3633 7.543v0.003907c2.6992 9.8516 2.0664 25.352 1.1875 43.48l-0.011719 0.49609c-0.003907 4.4297 2.8945 8.3789 7.1758 9.6758 0.97266 0.29297 1.9609 0.4375 2.9336 0.4375 3.4844 0 6.8203-1.8008 8.6836-4.9062l0.003906-0.003906c11.785-17.906 25.129-38 29.418-57.238v-0.011719c4.5117-20.262-0.9375-38.633-8.5664-52.266l-0.003906-0.007812c-7.6602-13.695-17.832-23.152-26.762-31.52l-0.007812-0.007813c-0.082031-0.074219-0.26562-0.21094-0.26562-0.21094 4.1914-28.828 5.4883-55.727 0.84375-78.152v-0.007813c-9.7266-46.953-44.898-73.402-76.387-97.273-0.36719-0.28516-0.54297-0.41797-0.54297-0.41797l-0.007812-0.007813c-1.8281-1.4023-3.9727-2.0469-6.1016-2.0469zm-31.898 310.08h-0.007812c-5.5742 0-10.094 4.5234-10.094 10.102v32.812c0 5.582 4.5273 10.109 10.109 10.109 5.5859 0 10.113-4.5273 10.113-10.109v-32.812c0-5.5859-4.5352-10.102-10.117-10.102zm63.746 0h-0.003906c-5.5781 0-10.098 4.5234-10.098 10.102v32.812c0 5.582 4.5273 10.109 10.113 10.109 5.582 0 10.109-4.5273 10.109-10.109v-32.812c0-5.5859-4.5312-10.102-10.117-10.102zm-31.875 26.035h-0.003906c-5.5781 0-10.094 4.5234-10.094 10.102v32.812c0 5.5859 4.5234 10.109 10.109 10.109 5.582 0 10.109-4.5234 10.109-10.109v-32.812c0-5.582-4.5273-10.102-10.109-10.102zm-164.27 54.141h-0.003906c-39.586 0-71.672 32.098-71.672 71.684 0 0.49609 0.003907 0.98828 0.015625 1.4844v0.007812c-10.023 8.7422-16.359 21.613-16.359 35.965 0 26.363 21.375 47.738 47.738 47.738 6.7891 0 13.254-1.4023 19.098-3.9492l0.03125-0.011719c3.5273-1.6055 5.9844-5.1445 5.9844-9.2617v-0.007812c0-5.582-4.5273-10.109-10.109-10.109-1.6328 0-3.1797 0.37891-4.5469 1.0664l-0.027344 0.015625c-3.2148 1.3086-6.7383 2.0352-10.43 2.0352-15.195 0-27.516-12.32-27.516-27.516 0-3.3828 0.61328-6.6211 1.7266-9.6133l0.003906-0.003906c2.7461-7.375 8.5586-13.238 15.922-16.062l0.007813-0.003907c3.0586-1.1992 6.3828-1.832 9.8555-1.832 1.2422 0 2.4688 0.082031 3.668 0.24219l0.027344 0.007812c0.55469 0.085938 1.0664 0.13672 1.6484 0.13672 5.5859 0 10.113-4.5273 10.113-10.113v-0.007813c0-5.0898-3.7656-9.3047-8.6602-10.008l-0.0625-0.007812c-2.2031-0.32812-4.4453-0.47266-6.7344-0.47266-3.5586 0-7.0234 0.39062-10.359 1.1289 4.3203-24.062 25.355-42.316 50.652-42.316 22.746 0 42.043 14.754 48.848 35.223l-0.023438 0.011719c-6.2617 3.5078-11.781 8.207-16.125 13.84l-0.015625 0.019532c-0.63281 0.80859-1.25 1.6406-1.832 2.5039l-0.007813 0.007812c-1.1094 1.6133-1.7617 3.582-1.7617 5.6992v0.007813c0 5.582 4.5273 10.109 10.109 10.109 3.5039 0 6.5859-1.7773 8.4023-4.4805l0.10938-0.15625c0.96875-1.3789 2.0195-2.6875 3.2109-3.8945l0.027344-0.023438c5.3398-5.5469 12.57-9.2578 20.695-10.09h0.003906c1.125-0.11328 2.2695-0.17188 3.4258-0.17188 10.547 0 19.965 4.8594 26.105 12.504l0.007813 0.007812c1.625 2.0234 3.0234 4.2383 4.1523 6.6172l0.003907 0.011719c1.6445 3.3398 5.0938 5.6445 9.0781 5.6445 2.6602 0 5.1289-0.98438 6.9336-2.6641l0.011718-0.011718c1.6992-1.6094 3.3203-3.3008 4.8594-5.0703l0.007813-0.011719c10.578-12.273 16.953-28.262 16.953-45.73 0-9.9883-2.0898-19.484-5.8555-28.078l-0.007812-0.019531c-1.3789-3.9492-5.1562-6.7539-9.5703-6.7539-5.582 0-10.109 4.5273-10.109 10.113v0.007813c0 1.4414 0.30078 2.8125 0.84375 4.0508l0.003906 0.007812c2.875 6.2891 4.4727 13.293 4.4727 20.672 0 9.7695-2.8086 18.883-7.6641 26.59l-0.007812 0.007813c-9.8398-11.113-24.211-18.117-40.219-18.117-2.3906 0-4.7461 0.15625-7.0195 0.46875l-0.003906-0.007812c-9.4727-28.508-36.355-49.059-68.043-49.059zm328.5 0.019531h-0.003907c-31.664 0-58.52 20.551-67.988 49.039l-0.003906-0.003906c-2.2734-0.30859-4.625-0.45703-7.0156-0.45703-16.008 0-30.375 7.0078-40.219 18.113l-0.003906 0.003906c-4.8555-7.7188-7.668-16.828-7.668-26.598 0-7.3555 1.5938-14.336 4.4531-20.621l0.019531-0.046875c0.53516-1.2891 0.84766-2.6367 0.84766-4.0625v-0.007813c0-5.5859-4.5273-10.113-10.109-10.113-4.418 0-8.1953 2.8203-9.5742 6.7656l-0.007813 0.019531c-3.7617 8.5859-5.8516 18.082-5.8516 28.066 0 17.469 6.3789 33.465 16.957 45.734l0.003906 0.007813c1.5391 1.7695 3.1602 3.4609 4.8594 5.0703l0.019531 0.019531c1.8047 1.6719 4.2656 2.6562 6.9258 2.6562 3.9844 0 7.4375-2.2969 9.082-5.6484 1.1289-2.3867 2.5312-4.582 4.1602-6.6055l0.007813-0.007812c6.1406-7.6484 15.547-12.523 26.098-12.523 1.1562 0 2.2969 0.0625 3.4219 0.17578h0.003906c8.1211 0.83203 15.344 4.5586 20.688 10.105l0.019531 0.019532c1.0508 1.0664 2.7891 3.3359 3.1992 3.875l0.16797 0.22266c1.918 2.5547 4.8906 4.418 8.375 4.418 5.582 0 10.109-4.5273 10.109-10.109v-0.007813c0-2.1211-0.65234-4.0859-1.7656-5.7109l-0.003906-0.007813c-0.58594-0.86719-1.2031-1.6836-1.832-2.4922l-0.011718-0.011719c-4.3438-5.6367-9.875-10.324-16.133-13.836l-0.015625-0.011719c6.8086-20.484 26.105-35.234 48.844-35.234 25.301 0 46.336 18.258 50.652 42.316l0.003906 0.007812c-3.3359-0.74609-6.8047-1.1367-10.363-1.1367-2.2969 0-4.5586 0.16406-6.7656 0.47656h-0.003906c-4.9141 0.68359-8.6875 4.9102-8.6875 10.012v0.007813c0 5.5859 4.5273 10.113 10.109 10.113 0.55859 0 1.1172-0.035157 1.6484-0.12109l0.011719-0.003906c1.207-0.17578 2.4375-0.26172 3.6875-0.26172 15.195 0 27.516 12.32 27.516 27.516s-12.32 27.516-27.516 27.516c-3.6914 0-7.2148-0.72656-10.43-2.043l-0.011719-0.007812c-1.3477-0.66016-2.9297-1.0664-4.5625-1.0664-5.582 0-10.109 4.5273-10.109 10.109v0.007812c0 4.1289 2.4688 7.6875 6.0156 9.2578l0.003906 0.003907c5.8477 2.543 12.305 3.9609 19.094 3.9609 26.363 0 47.738-21.375 47.738-47.738 0-14.34-6.332-27.184-16.344-35.938l-0.015625-0.011719c0.011719-0.51953 0.015625-1.0117 0.015625-1.5078 0-39.594-32.113-71.664-71.707-71.664z"/>
  <use x="70" y="691.25" xlink:href="#m"/>
  <use x="102.109375" y="691.25" xlink:href="#c"/>
  <use x="123.683594" y="691.25" xlink:href="#b"/>
  <use x="153.355469" y="691.25" xlink:href="#a"/>
  <use x="182.878906" y="691.25" xlink:href="#d"/>
  <use x="203.792969" y="691.25" xlink:href="#b"/>
  <use x="233.464844" y="691.25" xlink:href="#h"/>
  <use x="280.011719" y="691.25" xlink:href="#g"/>
  <use x="311.328125" y="691.25" xlink:href="#f"/>
  <use x="355.078125" y="691.25" xlink:href="#e"/>
  <use x="384.964844" y="691.25" xlink:href="#b"/>
  <use x="414.636719" y="691.25" xlink:href="#c"/>
  <use x="436.214844" y="691.25" xlink:href="#l"/>
  <use x="466.441406" y="691.25" xlink:href="#k"/>
  <use x="497.949219" y="691.25" xlink:href="#a"/>
  <use x="527.472656" y="691.25" xlink:href="#j"/>
  <use x="558.789062" y="691.25" xlink:href="#i"/>
  <use x="589.9375" y="691.25" xlink:href="#d"/>
  <use x="610.851562" y="691.25" xlink:href="#c"/>
  <use x="632.425781" y="691.25" xlink:href="#a"/>
 </g>
</svg>
